# xmcd
#
# Track frame offsets:
#	150
#	22090
#	40405
#	60812
#	75977
#	90112
#	108315
#	121900
#	141750
#	157507
#	173962
#	187867
#	210635
#	229577
#
# Disc length: 3337
#
# Revision: 1
# Processed by: cddbd v1.5.1PL0 Copyright (c) Steve Scherf et al.
# Submitted via: CDex 1.51
# Normalized: r0:DSETVAR1
#
DISCID=990d070e
DTITLE=Various Artist - L'Art D'Écouter  vol.1
DYEAR=1991
DGENRE=Français
TTITLE0=Mylène Farmer - désenchantée
TTITLE1=François Feldman - le serpent qui danse
TTITLE2=Martin destré - dans la lumière
TTITLE3=elmer Food Beat - le plastique c'est fantastique
TTITLE4=Pauline ester - féline
TTITLE5=Ismael Lo - Tajabone
TTITLE6=Lio - l'amour est lent
TTITLE7=Lio - the girl from Ipanema( duo avec Étienne daho )
TTITLE8=L'Affaire Louis Trio - les arbres verts
TTITLE9=Mory Kante - Bankiero
TTITLE10=Véronique Rivière - les petites copines
TTITLE11=Alain Turban - Pony
TTITLE12=Alain Manaranche - Berlin chansonnette
TTITLE13=Vanessa Paradis - amour en soi
EXTD=YEAR: 1991
EXTT0=
EXTT1=
EXTT2=
EXTT3=
EXTT4=
EXTT5=
EXTT6=
EXTT7=
EXTT8=
EXTT9=
EXTT10=
EXTT11=
EXTT12=
EXTT13=
PLAYORDER=
